HIERARCHY
ROOT Hips
{
	OFFSET 0.000000 0.000000 0.000000
	CHANNELS 6 Xposition Yposition Zposition Zrotation Yrotation Xrotation 
	JOINT LeftUpLeg_virtual
	{
		OFFSET 0.000000 0.000000 0.000000
		CHANNELS 3 Zrotation Yrotation Xrotation
		JOINT LeftUpLeg
		{
			OFFSET 10.205400 -3.823500 0.155100
			CHANNELS 3 Zrotation Yrotation Xrotation
			JOINT LeftLeg
			{
				OFFSET 0.708757 -12.982077 0.567790
				CHANNELS 3 Zrotation Yrotation Xrotation
				JOINT LeftFoot
				{
					OFFSET -0.708756 -10.717838 -2.184338
					CHANNELS 3 Zrotation Yrotation Xrotation
					JOINT LeftToeBase
					{
						OFFSET 0.108149 -7.191104 7.560241
						CHANNELS 3 Zrotation Yrotation Xrotation
						End Site
						{
							OFFSET 0.000000 0.000000 0.000000
						}
					}
				}
			}
		}
	}
	JOINT RightUpLeg_virtual
	{
		OFFSET 0.000000 0.000000 0.000000
		CHANNELS 3 Zrotation Yrotation Xrotation
		JOINT RightUpLeg
		{
			OFFSET -10.205400 -3.823500 0.005500
			CHANNELS 3 Zrotation Yrotation Xrotation
			JOINT RightLeg
			{
				OFFSET -0.708756 -12.982134 0.610632
				CHANNELS 3 Zrotation Yrotation Xrotation
				JOINT RightFoot
				{
					OFFSET 0.708754 -10.717769 -1.945823
					CHANNELS 3 Zrotation Yrotation Xrotation
					JOINT RightToeBase
					{
						OFFSET -0.108140 -7.191069 7.372968
						CHANNELS 3 Zrotation Yrotation Xrotation
						End Site
						{
							OFFSET 0.000000 0.000000 0.000000
						}
					}
				}
			}
		}
	}
	JOINT Spine_virtual
	{
		OFFSET 0.000000 0.000000 0.000000
		CHANNELS 3 Zrotation Yrotation Xrotation
		JOINT Spine
		{
			OFFSET 0.000000 6.876099 0.125700
			CHANNELS 3 Zrotation Yrotation Xrotation
			JOINT Spine1
			{
				OFFSET 0.000000 8.022060 0.146608
				CHANNELS 3 Zrotation Yrotation Xrotation
				JOINT Spine2
				{
					OFFSET 0.000000 9.168068 0.167552
					CHANNELS 3 Zrotation Yrotation Xrotation
					JOINT Neck_virtual
					{
						OFFSET 0.000000 0.000000 0.000000
						CHANNELS 3 Zrotation Yrotation Xrotation
						JOINT Neck
						{
							OFFSET 0.000000 10.314075 0.188496
							CHANNELS 3 Zrotation Yrotation Xrotation
							JOINT Head
							{
								OFFSET 0.000000 7.643700 -2.377400
								CHANNELS 3 Zrotation Yrotation Xrotation
								End Site
								{
									OFFSET 0.000000 0.000000 0.000000
								}
							}
						}
					}
					JOINT LeftShoulder_virtual
					{
						OFFSET 0.000000 0.000000 0.000000
						CHANNELS 3 Zrotation Yrotation Xrotation
						JOINT LeftShoulder
						{
							OFFSET 4.392200 8.824978 0.174984
							CHANNELS 3 Zrotation Yrotation Xrotation
							JOINT LeftArm
							{
								OFFSET 8.771219 -2.981674 -0.026999
								CHANNELS 3 Zrotation Yrotation Xrotation
								JOINT LeftForeArm
								{
									OFFSET 8.512804 0.000000 -0.000000
									CHANNELS 3 Zrotation Yrotation Xrotation
									JOINT LeftHand
									{
										OFFSET 18.484802 0.000000 -0.000000
										CHANNELS 3 Zrotation Yrotation Xrotation
										End Site
										{
											OFFSET 0.000000 0.000000 0.000000
										}
									}
								}
							}
						}
					}
					JOINT RightShoulder_virtual
					{
						OFFSET 0.000000 0.000000 0.000000
						CHANNELS 3 Zrotation Yrotation Xrotation
						JOINT RightShoulder
						{
							OFFSET -4.392200 8.824993 0.141379
							CHANNELS 3 Zrotation Yrotation Xrotation
							JOINT RightArm
							{
								OFFSET -8.771282 -2.981682 -0.094208
								CHANNELS 3 Zrotation Yrotation Xrotation
								JOINT RightForeArm
								{
									OFFSET -8.494598 0.000000 0.000000
									CHANNELS 3 Zrotation Yrotation Xrotation
									JOINT RightHand
									{
										OFFSET -18.483803 0.000000 0.000001
										CHANNELS 3 Zrotation Yrotation Xrotation
										End Site
										{
											OFFSET 0.000000 0.000000 0.000000
										}
									}
								}
							}
						}
					}
				}
			}
		}
	}
}
MOTION
Frames: 5
Frame Time: 0.033333
-2.096931 27.599806 -24.516619 179.257645 25.576661 -179.024982 -0.018259 -0.061871 26.366212 3.898449 -6.123916 -78.617957 12.317004 3.624207 71.181090 -1.095860 2.222587 -0.897203 0.000000 0.000000 0.000000 8.863238 -2.171932 24.912633 -15.708498 -7.990243 -74.791705 4.026353 4.772242 77.069491 1.827483 5.561114 -1.812500 0.000000 0.000000 0.000000 3.438923 0.525745 29.558139 7.130520 0.319874 14.492451 -1.675990 -1.830958 6.778500 0.124490 0.038931 0.125474 -1.187047 -0.632032 8.577624 -6.985697 -7.557613 15.767396 0.000000 0.000000 0.000000 -0.012446 0.094062 3.955141 -1.654957 -7.077903 2.983938 -60.799605 -2.443363 11.960083 56.996112 -86.665812 -40.833753 0.000000 0.000000 0.000000 -3.951932 1.512074 2.959662 4.252027 4.529659 -9.655496 64.497142 23.627317 32.393818 -154.698280 75.704710 -162.254012 0.000000 0.000000 0.000000 
-2.226515 27.080145 -24.252113 179.153745 25.905659 -179.089800 0.063556 0.145869 26.001454 3.984912 -5.589005 -80.427144 12.503442 3.807603 73.993024 -1.474194 1.925923 -1.820019 0.000000 0.000000 0.000000 8.632487 -2.075475 24.627668 -15.607500 -7.894561 -76.955625 3.947342 4.885903 79.604516 2.054704 6.241280 -2.227724 0.000000 0.000000 0.000000 3.388255 0.683584 29.275311 6.848970 0.209804 14.425064 -1.543738 -1.793040 6.652583 0.091972 -0.071966 0.160965 -1.010204 -0.702385 8.422607 -7.003702 -7.216885 15.660498 0.000000 0.000000 0.000000 0.162532 0.046750 3.868669 -1.641505 -6.918732 3.091602 -60.188412 -2.944174 11.867144 55.327312 -86.533101 -39.239047 0.000000 0.000000 0.000000 -3.754435 1.480883 2.887637 3.920509 4.492941 -9.958867 63.595229 24.245561 30.973316 -155.309486 75.716649 -163.226549 0.000000 0.000000 0.000000 
-2.367559 26.529882 -23.950788 179.120891 26.251788 -179.148294 0.297453 0.324985 25.475909 3.960386 -5.167961 -82.065146 12.614606 4.059552 76.682220 -1.828028 1.770785 -2.865588 0.000000 0.000000 0.000000 8.405842 -1.973202 24.231464 -15.424201 -7.740505 -79.094028 3.931538 4.955284 82.170010 2.261309 6.822035 -2.611670 0.000000 0.000000 0.000000 3.456472 0.847762 28.913359 6.644032 0.143008 14.427750 -1.445163 -1.795786 6.508183 0.137712 -0.088065 0.154223 -0.918879 -0.558531 8.282836 -7.013109 -7.093861 15.663256 0.000000 0.000000 0.000000 0.183868 0.089731 3.805457 -1.646737 -6.848810 2.955383 -59.596720 -3.594835 11.710352 49.399029 -86.365953 -33.366683 0.000000 0.000000 0.000000 -3.738183 1.577837 2.756797 3.763969 4.321979 -10.106415 62.483090 25.089097 29.012495 -155.649943 75.786017 -163.857140 0.000000 0.000000 0.000000 
-2.536020 25.984324 -23.632824 179.087601 26.610979 -179.251143 0.587436 0.442481 24.833962 4.031396 -4.818591 -83.481325 12.767791 4.462509 79.135029 -2.035286 1.755025 -3.789040 0.000000 0.000000 0.000000 8.168894 -1.877191 23.658756 -15.365697 -7.575325 -81.037025 4.037580 4.951050 84.564757 2.369421 7.288585 -2.984696 0.000000 0.000000 0.000000 3.592493 0.868708 28.564036 6.459955 0.114366 14.496221 -1.372654 -1.755813 6.349791 0.119546 -0.051444 0.127730 -0.762997 -0.312588 8.130321 -7.152542 -6.914641 15.769623 0.000000 0.000000 0.000000 0.284242 0.185718 3.794622 -1.729457 -6.850921 2.639009 -58.902336 -4.412583 11.553365 42.452914 -86.224773 -26.442215 0.000000 0.000000 0.000000 -3.621667 1.614168 2.608810 3.559547 4.176139 -10.163548 61.046202 25.987058 26.582159 -155.574593 75.764748 -164.037730 0.000000 0.000000 0.000000 
-2.715983 25.491856 -23.313143 179.155643 26.904267 -179.248602 0.995880 0.352992 24.111124 3.930588 -4.651275 -84.635360 12.887309 4.683652 81.084796 -1.995588 1.988500 -4.298568 0.000000 0.000000 0.000000 8.018746 -1.827560 22.892048 -15.427451 -7.443173 -82.642311 4.365901 4.757065 86.507993 2.325008 7.617386 -3.286122 0.000000 0.000000 0.000000 3.858360 0.750070 27.976798 6.346203 0.061940 14.674588 -1.342412 -1.787937 6.269806 0.082410 -0.081291 0.139671 -0.730322 -0.526946 7.920653 -7.365451 -6.426738 15.742609 0.000000 0.000000 0.000000 0.387432 0.222133 3.623128 -1.898049 -6.829482 2.596172 -58.168965 -5.408292 11.485071 40.267609 -85.862130 -24.261638 0.000000 0.000000 0.000000 -3.538172 1.703382 2.473083 3.331497 4.064785 -10.332534 59.544770 26.834297 24.051451 -155.260309 75.790757 -163.925414 0.000000 0.000000 0.000000 
